<svg viewBox="0 0 32 32" xmlns="http://www.w3.org/2000/svg"><path d="m16 4c-6.617187 0-12 5.382813-12 12 0 6.617188 5.382813 12 12 12 4.050781 0 7.640625-2.011719 9.8125-5.09375l-1.625-1.15625c-1.808594 2.570313-4.796875 4.25-8.1875 4.25-5.535156 0-10-4.464844-10-10s4.464844-10 10-10c3.390625 0 6.375 1.679688 8.1875 4.25l1.625-1.15625c-2.171875-3.082031-5.761719-5.09375-9.8125-5.09375zm7.34375 7.28125-1.4375 1.4375 2.28125 2.28125h-12.1875v2h12.1875l-2.28125 2.28125 1.4375 1.4375 4-4 .6875-.71875-.6875-.71875z"/></svg>
